<svg width="128" height="116" viewBox="0 0 128 116" fill="none" xmlns="http://www.w3.org/2000/svg">
<path d="M60.7159 73.8266C66.6413 73.8073 79.5959 73.7638 79.4466 66.2963C79.3026 58.6596 66.8599 59.1188 60.7959 59.346C60.1186 59.3701 59.5159 59.3943 59.0253 59.3991L59.3026 73.8363C59.7026 73.8266 60.1826 73.8266 60.7159 73.8266V73.8266ZM60.0866 52.7871C65.0306 52.7823 75.8199 52.7726 75.6919 45.9818C75.5533 39.0363 65.1906 39.4471 60.1293 39.6501C59.5586 39.6743 59.0626 39.6936 58.6466 39.6985L58.8973 52.792L60.0866 52.7871Z" fill="#E4A951"/>
<path fill-rule="evenodd" clip-rule="evenodd" d="M48.5077 114.262C82.801 122.01 117.532 103.097 126.081 72.0288C134.63 40.9553 113.756 9.48061 79.4623 1.73761C45.1903 -6.01506 10.4597 12.9026 1.91567 43.9809C-6.63366 75.0496 14.2357 106.524 48.513 114.267L48.5077 114.262ZM71.345 31.9991C80.6997 32.5984 88.145 35.0828 89.121 42.8354C89.8464 48.5098 87.2864 51.9656 83.1317 53.9666C90.065 55.3586 94.465 59.0078 93.7717 67.3598C92.913 77.7273 84.449 80.6418 72.2997 81.4634L72.5023 92.3384L65.2703 92.4593L65.0623 81.7293C63.1903 81.7583 61.2703 81.7776 59.281 81.7679L59.4943 92.5463L52.2623 92.6623L52.049 81.7679L50.0063 81.7824C48.9717 81.7873 47.9263 81.7921 46.881 81.8114L37.4623 81.9565L38.7477 74.1071C38.7477 74.1071 44.1023 74.0974 44.0063 74.0249C46.0543 73.9863 46.5717 72.6474 46.6837 71.8064L46.3583 54.6143L46.8757 54.6046H47.121C46.8661 54.5781 46.6096 54.5668 46.353 54.5708L46.1183 42.2941C45.8143 40.9698 44.833 39.4424 41.905 39.4908C41.985 39.3941 36.6463 39.5729 36.6463 39.5729L36.5077 32.5743L46.4917 32.4196V32.4534C47.9903 32.4293 49.5317 32.3809 51.0943 32.3278L50.8917 21.5543L58.1237 21.4431L58.3263 31.9991C60.257 31.9363 62.1983 31.8686 64.1023 31.8396L63.8997 21.3513L71.137 21.2353L71.345 32.0088V31.9991Z" fill="#E4A951"/>
</svg>
