<svg width="112" height="99" viewBox="0 0 112 99" fill="none" xmlns="http://www.w3.org/2000/svg">
<path d="M92.5329 27.0404L66.773 3.96812C65.4092 2.71262 63.7772 1.71447 61.9735 1.03285C60.1699 0.351223 58.2314 0 56.273 0C54.3146 0 52.3761 0.351223 50.5725 1.03285C48.7688 1.71447 47.1368 2.71262 45.773 3.96812L19.9431 27.0404L56.133 43.1722L92.5329 27.0404ZM102.417 36.3568L107.527 40.9213C108.941 42.1349 110.066 43.5912 110.835 45.2029C111.604 46.8146 112 48.5484 112 50.3002C112 52.0521 111.604 53.7858 110.835 55.3975C110.066 57.0092 108.941 58.4656 107.527 59.6792L66.3623 96.8116C65.3866 97.7031 64.2509 98.4428 63.0023 99V53.9893L102.417 36.3568ZM9.58316 36.3568L4.47318 40.9213C3.05884 42.1349 1.93357 43.5912 1.1649 45.2029C0.396224 46.8146 0 48.5484 0 50.3002C0 52.0521 0.396224 53.7858 1.1649 55.3975C1.93357 57.0092 3.05884 58.4656 4.47318 59.6792L45.6424 96.8116C46.6224 97.7036 47.7564 98.4456 49.0024 99V53.9893L9.58316 36.3568Z" fill="#E4A951"/>
</svg>
