<svg width="127" height="125" viewBox="0 0 127 125" fill="none" xmlns="http://www.w3.org/2000/svg">
<ellipse cx="63.5" cy="62.5" rx="63.5" ry="62.5" fill="#434343"/>
<path d="M83.0417 87.75H45.9583V39.25H83.0417C83.0417 41.4729 84.7104 43.2917 86.75 43.2917C88.7896 43.2917 90.4583 41.4729 90.4583 39.25V27.125C90.4583 22.6792 87.1208 19.0417 83.0417 19.0417L45.9583 19.0821C41.8792 19.0821 38.5417 22.6792 38.5417 27.125V99.875C38.5417 104.321 41.8792 107.958 45.9583 107.958H83.0417C87.1208 107.958 90.4583 104.321 90.4583 99.875V87.75C90.4583 85.5271 88.7896 83.7083 86.75 83.7083C84.7104 83.7083 83.0417 85.5271 83.0417 87.75Z" fill="#FF8A00"/>
<path d="M100.285 62.0854L89.9392 50.8092C89.6812 50.5204 89.3501 50.3221 88.9882 50.2396C88.6263 50.1571 88.25 50.1941 87.9075 50.3461C87.565 50.498 87.2719 50.7578 87.0657 51.0923C86.8595 51.4268 86.7496 51.8208 86.75 52.2238V59.4583H71.9166C69.8771 59.4583 68.2083 61.2771 68.2083 63.5C68.2083 65.7229 69.8771 67.5417 71.9166 67.5417H86.75V74.7763C86.75 76.595 88.7525 77.4842 89.9021 76.1908L100.248 64.9146C100.99 64.1467 100.99 62.8533 100.285 62.0854V62.0854Z" fill="#FF8A00"/>
</svg>
